<svg version="1.1" id="Capa_1" xmlns="http://www.w3.org/2000/svg" x="0" y="0" viewBox="-658 -20.1 612 612" xml:space="preserve"><style type="text/css">.st0{fill:#010002}</style><path class="st0" d="M-352 591.9c-28.2 0-55.3-3.7-81.4-11-26.1-7.3-50.5-17.6-73.1-30.9s-43.2-29.2-61.8-47.7c-18.6-18.6-34.5-39.2-47.7-61.8-13.3-22.6-23.6-47-30.9-73.1-7.3-26.1-11-53.2-11-81.4 0-28.2 3.7-55.3 11-81.4s17.6-50.5 30.9-73.1 29.2-43.2 47.7-61.8c18.6-18.6 39.2-34.5 61.8-47.7s47-23.6 73.1-30.9 53.2-11 81.4-11c42 0 81.7 8.1 119 24.2s69.8 37.9 97.3 65.5 49.4 60 65.5 97.3 24.2 77 24.2 119c0 28.2-3.7 55.3-11 81.4-7.3 26.1-17.6 50.5-30.9 73.1-13.3 22.6-29.2 43.2-47.7 61.8-18.6 18.6-39.2 34.5-61.8 47.7-22.6 13.3-47 23.6-73.1 30.9-26.2 7.2-53.3 10.9-81.5 10.9zm147.5-432.1h-290.1c-2.9 0-5.3.9-7.3 2.8-2 1.8-3.1 4.4-3.1 7.6v32.4c0 1.6.6 2.4 1.8 2.4l152.4 86.9 1.2.6c.8 0 1.4-.2 1.8-.6l147.5-86.9c.8-.4 1.4-.6 1.8-.6.4 0 1-.2 1.8-.6 1.6 0 2.4-.8 2.4-2.4v-31.2c0-3.3-1-5.8-3.1-7.6s-4.3-2.8-7.1-2.8zm-208.1 130.4c.4-.4.6-1 .6-1.8 0-1.2-.4-1.8-1.2-1.8l-87.5-50.2c-1.2-.4-2.2-.4-3.1 0-.8 0-1.2.6-1.2 1.8v131.6c0 1.2.6 2 1.8 2.4h1.2c.8 0 1.2-.2 1.2-.6l88.2-81.4zm106.5 9.8c-.4-1.2-1.4-1.4-3.1-.6l-33.7 19.6c-4.1 2.4-8.4 2.4-12.9 0l-29.4-16.5c-1.2-.8-2.2-.8-3.1 0l-112 104c-.4.4-.6 1.2-.6 2.4 0 .4.4 1 1.2 1.8 2.4.8 4.1 1.2 4.9 1.2h287c.8 0 1.6-.4 2.4-1.2 0-1.6-.2-2.6-.6-3.1L-306.1 300zm110.2-66.1h-2.4l-83.2 49.6c-.8 0-1.2.6-1.2 1.8-.4.4-.2 1 .6 1.8l83.2 90c.8.8 1.4 1.2 1.8 1.2h1.2c1.2-1.2 1.8-2 1.8-2.4V236.3c0-.8-.6-1.6-1.8-2.4z"/></svg>