<svg version="1.1" id="Capa_1" xmlns="http://www.w3.org/2000/svg" x="0" y="0" viewBox="-744 313.1 96 96" xml:space="preserve"><style type="text/css">.st0{fill:#030104}</style><path class="st0" d="M-700.5 347.5c-1.2-4.2-3.2-5.5-6.2-5.5-.3 0-.7 0-1 .1-1.3.4-2.4 1.5-2.9 3.1-.6 1.7-.6 3.4-.1 5.3.9 3.5 3.4 6 5.9 6 .3 0 .7 0 1-.1 2.7-.7 4.4-4.9 3.3-8.9zm4.5-34.4c-26.5 0-48 21.5-48 48s21.5 48 48 48 48-21.5 48-48-21.5-48-48-48zm-2.8 68.6c-3 1.5-6.3 1.6-7.5 1.6h-.4-.2c-2 0-11.7-.4-11.7-9.3 0-8.7 10.6-9.4 13.9-9.4h.1c-1.9-2.5-1.5-5-1.5-5h-.7c-1.2 0-3.6-.2-5.6-1.5-2.5-1.6-3.7-4.3-3.7-8.1 0-10.7 11.6-11.1 11.7-11.1h11.6v.3c0 1.3-2.3 1.5-3.9 1.8-.5.1-1.6.2-1.9.3 2.9 1.6 3.4 4 3.4 7.7 0 4.2-1.6 6.4-3.4 8-1.1 1-1.9 1.7-1.9 2.7 0 1 1.2 2 2.5 3.2 2.2 1.9 5.2 4.6 5.2 9.1-.1 4.5-2.1 7.8-6 9.7zm25.4-20.6h-7.6v7.6h-4.8v-7.6h-7.6v-4.8h7.6v-7.6h4.8v7.6h7.6v4.8zm-31.5 5.8h-.8c-2.2.2-4.3 1-5.8 2.3-1.5 1.3-2.2 3-2.1 4.7.2 3.5 4 5.6 8.7 5.3 4.6-.3 7.6-3 7.4-6.5-.2-3.3-3.1-5.8-7.4-5.8z"/></svg>