<svg version="1.1" id="Capa_1" xmlns="http://www.w3.org/2000/svg" x="0" y="0" viewBox="-660 346.6 49.7 49.7" xml:space="preserve"><path d="M-635.2 376.4c2.7 0 5-2.2 5-5 0-1.1-.4-2.1-.9-2.9-.9-1.3-2.4-2.1-4-2.1-1.7 0-3.1.8-4 2.1-.6.8-.9 1.8-.9 2.9-.1 2.8 2.1 5 4.8 5zM-624.3 365.3v-4.8h-.6l-4.2.1v4.7z"/><path d="M-635.2 346.6c-13.7 0-24.8 11.1-24.8 24.8 0 13.7 11.1 24.8 24.8 24.8 13.7 0 24.8-11.1 24.8-24.8.1-13.7-11.1-24.8-24.8-24.8zm14.1 21.9v11.6c0 3-2.4 5.5-5.5 5.5h-17.3c-3 0-5.5-2.4-5.5-5.5v-17.4c0-3 2.4-5.5 5.5-5.5h17.3c3 0 5.5 2.4 5.5 5.5v5.8z"/><path d="M-627.5 371.4c0 4.3-3.5 7.7-7.7 7.7-4.3 0-7.7-3.5-7.7-7.7 0-1 .2-2 .6-2.9h-4.2v11.6c0 1.5 1.2 2.7 2.7 2.7h17.3c1.5 0 2.7-1.2 2.7-2.7v-11.6h-4.2c.3.9.5 1.9.5 2.9z"/></svg>