<svg version="1.1" id="Layer_1" xmlns="http://www.w3.org/2000/svg" x="0" y="0" viewBox="0 0 36.1 36.1" xml:space="preserve"><style type="text/css">.st0{fill:#fff}</style><g id="XMLID_2_"><path id="XMLID_3_" class="st0" d="M18 0C8.1 0 0 8.1 0 18s8.1 18 18 18 18-8.1 18-18c.1-9.9-8-18-18-18zm-4.4 24.6h-3.1v-9.9h3.1v9.9zM12 13.5c-1.1 0-1.9-.8-1.9-1.7 0-1 .7-1.7 1.9-1.7 1.1 0 1.8.7 1.9 1.7 0 .9-.8 1.7-1.9 1.7zm13.9 11.1h-3.5v-5.1c0-1.3-.5-2.3-1.8-2.3-.9 0-1.4.6-1.7 1.2-.1.2-.1.5-.1.8v5.3h-3.5v-9.9H19v1.5c.2-.7 1.3-1.6 3.1-1.6 2.2 0 3.9 1.4 3.9 4.5v5.6z"/></g></svg>